<svg width="400" height="160" viewBox="0 0 400 160" xmlns="http://www.w3.org/2000/svg">
  <defs>
    <linearGradient id="border" x1="0" y1="0" x2="1" y2="1">
      <stop offset="0%" stop-color="#a78bfa"/>
      <stop offset="100%" stop-color="#3b3f66"/>
    </linearGradient>
  </defs>
  <rect x="1" y="1" width="398" height="158" rx="12" fill="#0d1020" stroke="url(#border)" stroke-width="1.5"/>
  <ellipse cx="200" cy="2" rx="190" ry="42" fill="#a78bfa" opacity="0.07"/>

  <!-- icon box: VR headset -->
  <rect x="20" y="44" width="72" height="72" rx="12" fill="#161a36"/>
  <g transform="translate(28,65)">
    <rect x="-4" y="8" width="8" height="14" rx="3" fill="#7c5cd6"/>
    <rect x="52" y="8" width="8" height="14" rx="3" fill="#7c5cd6"/>
    <rect x="0" y="0" width="56" height="30" rx="9" fill="#a78bfa"/>
    <rect x="22" y="21" width="12" height="9" rx="4" fill="#161a36"/>
    <circle cx="15" cy="14" r="8" fill="#2c2250"/>
    <circle cx="41" cy="14" r="8" fill="#2c2250"/>
    <circle cx="15" cy="14" r="3.5" fill="#7ee7f5">
      <animate attributeName="opacity" values="0.3;1;0.3" dur="2.2s" repeatCount="indefinite"/>
    </circle>
    <circle cx="41" cy="14" r="3.5" fill="#7ee7f5">
      <animate attributeName="opacity" values="0.3;1;0.3" dur="2.2s" repeatCount="indefinite"/>
    </circle>
  </g>

  <text x="110" y="66" font-family="Consolas, 'Courier New', monospace" font-size="19" font-weight="bold" fill="#e8ebff">VR GlassPulling</text>
  <text x="372" y="33" font-family="Consolas, monospace" font-size="14" fill="#a78bfa" text-anchor="middle">&#9658;<animate attributeName="opacity" values="0.4;1;0.4" dur="2s" repeatCount="indefinite"/></text>
  <text x="110" y="89"  font-family="'Segoe UI', Ubuntu, sans-serif" font-size="13" fill="#9aa3c7">VR mini-games: glass pulling, ring pass</text>
  <text x="110" y="106" font-family="'Segoe UI', Ubuntu, sans-serif" font-size="13" fill="#9aa3c7">and avatar head &amp; body skin switching.</text>

  <g font-family="'Segoe UI', Ubuntu, sans-serif" font-size="11" text-anchor="middle">
    <rect x="110" y="118" width="50" height="22" rx="11" fill="#a78bfa" opacity="0.12"/>
    <rect x="110" y="118" width="50" height="22" rx="11" fill="none" stroke="#a78bfa" opacity="0.45"/>
    <text x="135" y="133" fill="#c4b5fd">Unity</text>
    <rect x="168" y="118" width="36" height="22" rx="11" fill="#a78bfa" opacity="0.12"/>
    <rect x="168" y="118" width="36" height="22" rx="11" fill="none" stroke="#a78bfa" opacity="0.45"/>
    <text x="186" y="133" fill="#c4b5fd">C#</text>
    <rect x="212" y="118" width="40" height="22" rx="11" fill="#a78bfa" opacity="0.12"/>
    <rect x="212" y="118" width="40" height="22" rx="11" fill="none" stroke="#a78bfa" opacity="0.45"/>
    <text x="232" y="133" fill="#c4b5fd">VR</text>
  </g>
</svg>
