<svg width="400" height="160" viewBox="0 0 400 160" xmlns="http://www.w3.org/2000/svg">
  <defs>
    <linearGradient id="border" x1="0" y1="0" x2="1" y2="1">
      <stop offset="0%" stop-color="#fb7185"/>
      <stop offset="100%" stop-color="#3b3f66"/>
    </linearGradient>
  </defs>
  <rect x="1" y="1" width="398" height="158" rx="12" fill="#0d1020" stroke="url(#border)" stroke-width="1.5"/>
  <ellipse cx="200" cy="2" rx="190" ry="42" fill="#fb7185" opacity="0.07"/>

  <!-- icon box -->
  <rect x="20" y="44" width="72" height="72" rx="12" fill="#161a36"/>
  <g transform="translate(33,80)">
    <rect x="12" y="-9" width="3" height="6" fill="#f43f5e"/>
    <rect x="26" y="-9" width="3" height="6" fill="#f43f5e"/>
    <rect x="9"  y="-15" width="7" height="7" fill="#ffe4e6"/>
    <rect x="24" y="-15" width="7" height="7" fill="#ffe4e6"/>
    <rect x="11" y="-13" width="3" height="3" fill="#0d1020"/>
    <rect x="26" y="-13" width="3" height="3" fill="#0d1020"/>
    <rect x="8" y="-3" width="25" height="6" fill="#fb7185"/>
    <rect x="3" y="3" width="35" height="11" fill="#f43f5e"/>
    <rect x="-8" y="0" width="10" height="9" fill="#fb7185"/>
    <rect x="-8" y="3" width="4" height="3" fill="#161a36"/>
    <rect x="39" y="0" width="10" height="9" fill="#fb7185"/>
    <rect x="45" y="3" width="4" height="3" fill="#161a36"/>
    <g fill="#e11d48">
      <g>
        <rect x="5"  y="14" width="4" height="6"/>
        <rect x="14" y="14" width="4" height="6"/>
        <rect x="23" y="14" width="4" height="6"/>
        <rect x="32" y="14" width="4" height="6"/>
        <animate attributeName="opacity" values="1;1;0;0" keyTimes="0;0.5;0.5;1" dur="0.7s" repeatCount="indefinite"/>
      </g>
      <g>
        <rect x="9"  y="14" width="4" height="6"/>
        <rect x="18" y="14" width="4" height="6"/>
        <rect x="27" y="14" width="4" height="6"/>
        <rect x="36" y="14" width="4" height="6"/>
        <animate attributeName="opacity" values="0;0;1;1" keyTimes="0;0.5;0.5;1" dur="0.7s" repeatCount="indefinite"/>
      </g>
    </g>
  </g>

  <text x="110" y="66" font-family="Consolas, 'Courier New', monospace" font-size="19" font-weight="bold" fill="#e8ebff">Holy Crab — IK</text>
  <text x="372" y="33" font-family="Consolas, monospace" font-size="14" fill="#fb7185" text-anchor="middle">&#9658;<animate attributeName="opacity" values="0.4;1;0.4" dur="2s" repeatCount="indefinite"/></text>
  <text x="110" y="89"  font-family="'Segoe UI', Ubuntu, sans-serif" font-size="13" fill="#9aa3c7">A crab that walks with procedural inverse</text>
  <text x="110" y="106" font-family="'Segoe UI', Ubuntu, sans-serif" font-size="13" fill="#9aa3c7">kinematics — no animation clips, just code.</text>

  <g font-family="'Segoe UI', Ubuntu, sans-serif" font-size="11" text-anchor="middle">
    <rect x="110" y="118" width="50" height="22" rx="11" fill="#fb7185" opacity="0.12"/>
    <rect x="110" y="118" width="50" height="22" rx="11" fill="none" stroke="#fb7185" opacity="0.45"/>
    <text x="135" y="133" fill="#fda4af">Unity</text>
    <rect x="168" y="118" width="36" height="22" rx="11" fill="#fb7185" opacity="0.12"/>
    <rect x="168" y="118" width="36" height="22" rx="11" fill="none" stroke="#fb7185" opacity="0.45"/>
    <text x="186" y="133" fill="#fda4af">C#</text>
    <rect x="212" y="118" width="98" height="22" rx="11" fill="#fb7185" opacity="0.12"/>
    <rect x="212" y="118" width="98" height="22" rx="11" fill="none" stroke="#fb7185" opacity="0.45"/>
    <text x="261" y="133" fill="#fda4af">Procedural IK</text>
  </g>
</svg>
